<?xml version="1.0" encoding="utf-8"?>
<!-- Generator: Adobe Illustrator 23.1.1, SVG Export Plug-In . SVG Version: 6.00 Build 0)  -->
<svg version="1.1" id="Capa_1" focusable="false" xmlns="http://www.w3.org/2000/svg" xmlns:xlink="http://www.w3.org/1999/xlink"
	 x="0px" y="0px" viewBox="0 0 512 512" style="enable-background:new 0 0 512 512;" xml:space="preserve">
<style type="text/css">
	.st0{fill:#57A161;}
</style>
<path class="st0" d="M483.5,227.6H462c-50.7,0-76.1-61.3-40.2-97.1l15.2-15.2c10.7-11.5,10.1-29.5-1.4-40.2
	c-10.9-10.2-27.9-10.2-38.8,0l-15.2,15.2c-35.8,35.8-97.1,10.4-97.1-40.2V28.4C284.4,12.7,271.7,0,256,0
	c-15.7,0-28.4,12.7-28.4,28.4V50c0,50.7-61.3,76.1-97.1,40.2L115.2,75C103.7,64.3,85.7,64.9,75,76.4c-10.2,10.9-10.2,27.8,0,38.8
	l15.2,15.2c35.8,35.8,10.4,97.1-40.2,97.1H28.5c-15.7-0.3-28.7,12.2-29,27.9s12.2,28.7,27.9,29c0.4,0,0.7,0,1.1,0H50
	c50.7,0,76.1,61.3,40.2,97.1L75,396.8c-10.6,11.6-9.9,29.6,1.7,40.2c10.9,10,27.6,10,38.5,0l15.2-15.2
	c35.8-35.8,97.1-10.5,97.1,40.2v21.5c0,15.7,12.7,28.5,28.4,28.5c15.7,0,28.5-12.7,28.5-28.5V462c0-50.7,61.3-76.1,97.1-40.2
	l15.2,15.2c11.6,10.6,29.6,9.9,40.2-1.7c10-10.9,10-27.6,0-38.5l-15.2-15.2c-35.8-35.8-10.5-97.1,40.2-97.1h21.5
	c15.7,0.3,28.7-12.2,29-27.9c0.3-15.7-12.2-28.7-27.9-29C484.2,227.5,483.9,227.5,483.5,227.6L483.5,227.6z M224,272
	c-26.5,0-48-21.5-48-48s21.5-48,48-48s48,21.5,48,48S250.5,272,224,272z M304,328c-13.3,0-24-10.7-24-24s10.7-24,24-24
	s24,10.7,24,24S317.3,328,304,328z"/>
</svg>
